<?xml version="1.0" encoding="UTF-8"?>
<svg version="1.1" xmlns="http://www.w3.org/2000/svg" width="109" height="99">
<path d="M0 0 C35.97 0 71.94 0 109 0 C109 32.67 109 65.34 109 99 C73.03 99 37.06 99 0 99 C0 66.33 0 33.66 0 0 Z " fill="#012F25" transform="translate(0,0)"/>
<path d="M0 0 C3.19379728 0.62735304 4.83240788 1.99142607 6.96875 4.38671875 C7.78125 7.13671875 7.78125 7.13671875 7.96875 9.38671875 C9 9.28359375 10.03125 9.18046875 11.09375 9.07421875 C14.96875 9.38671875 14.96875 9.38671875 18.40625 11.32421875 C21.46237128 14.97665638 21.5629366 16.71199588 21.375 21.30078125 C20.96875 23.38671875 20.96875 23.38671875 18.96875 26.38671875 C19.25672019 27.73057963 19.60090869 29.06249005 19.96875 30.38671875 C20.4970461 36.09231658 19.57813968 38.92806091 15.96875 43.38671875 C12.88069371 44.93074689 9.77227176 44.24614649 6.37890625 44.03125 C3.80045631 44.13659399 3.80045631 44.13659399 2.3203125 46.3828125 C1.87429687 47.04410156 1.42828125 47.70539063 0.96875 48.38671875 C-1.71875 48.63671875 -1.71875 48.63671875 -4.03125 48.38671875 C-4.69125 47.06671875 -5.35125 45.74671875 -6.03125 44.38671875 C-6.75570312 44.44472656 -7.48015625 44.50273438 -8.2265625 44.5625 C-17.1185931 44.97746143 -17.1185931 44.97746143 -20.65625 42.32421875 C-23.50701702 38.79827007 -24.03125 36.89707792 -24.03125 32.38671875 C-23.66 31.33484375 -23.28875 30.28296875 -22.90625 29.19921875 C-22.6175 28.27109375 -22.32875 27.34296875 -22.03125 26.38671875 C-23.39448743 24.34674685 -23.39448743 24.34674685 -25.03125 22.38671875 C-25.64744215 18.33745604 -25.19336073 16.67311437 -23.15625 13.07421875 C-21.03125 10.38671875 -21.03125 10.38671875 -19.03125 9.38671875 C-16.3588879 9.25256403 -13.70874512 9.34353334 -11.03125 9.38671875 C-10.94875 8.64421875 -10.86625 7.90171875 -10.78125 7.13671875 C-9.18304101 1.27661912 -6.01765849 -0.32558227 0 0 Z " fill="#EAF7F4" transform="translate(58.03125,20.61328125)"/>
<path d="M0 0 C3.71036599 2.12020914 5.35681352 4.13284562 7 8 C7.65528607 11.79376145 7.86351149 15.4527415 5.94921875 18.8828125 C4.18131514 21.04184522 2.50974598 22.74512701 0 24 C-7.26224784 24.57636888 -7.26224784 24.57636888 -10 22.4375 C-11.36556065 19.1089459 -11.3953926 16.55853339 -11 13 C-10.01 12.34 -9.02 11.68 -8 11 C-7.34 12.65 -6.68 14.3 -6 16 C-2.70924004 15.62095792 -2.70924004 15.62095792 0 14 C-0.17567358 10.51944126 -0.17567358 10.51944126 -1 7 C-3.86728634 4.67680131 -3.86728634 4.67680131 -7.375 5.0625 C-11.71970562 6.18613076 -13.30969601 7.43930354 -16 11 C-16.87989974 14.18150892 -16.87989974 14.18150892 -17 17 C-17.66 16.67 -18.32 16.34 -19 16 C-19.45760607 10.2799241 -18.63848132 7.44703273 -15 3 C-10.50581445 -1.10423453 -5.80452158 -0.78369653 0 0 Z " fill="#0A372D" transform="translate(62,34)"/>
</svg>
