<?xml version="1.0" encoding="UTF-8"?>
<svg version="1.1" xmlns="http://www.w3.org/2000/svg" width="102" height="80">
<path d="M0 0 C33.66 0 67.32 0 102 0 C102 26.4 102 52.8 102 80 C68.34 80 34.68 80 0 80 C0 53.6 0 27.2 0 0 Z " fill="#023026" transform="translate(0,0)"/>
<path d="M0 0 C2.69048234 1.67302898 5.01565115 3.5210718 7 6 C7 6.99 7 7.98 7 9 C8.03125 8.896875 9.0625 8.79375 10.125 8.6875 C15.19970101 9.09675008 16.46272683 10.46272683 20 14 C21.22487152 16.44974304 20.98796191 17.6753273 20.6875 20.375 C20.60886719 21.14585938 20.53023437 21.91671875 20.44921875 22.7109375 C20 25 20 25 18.89453125 27.1640625 C18.59933594 27.76992188 18.30414063 28.37578125 18 29 C18.495 29.99 18.495 29.99 19 31 C19.48142466 35.81424659 19.46256348 38.09139317 17.25 42.4375 C14.48831098 45.41469655 11.81294869 45.41046284 7.875 45.625 C6.84117188 45.61726563 5.80734375 45.60953125 4.7421875 45.6015625 C1.85908037 45.72657778 1.85908037 45.72657778 0.1328125 48.0234375 C-0.42792969 49.00183594 -0.42792969 49.00183594 -1 50 C-3.375 49.6875 -3.375 49.6875 -6 49 C-6.66 48.01 -7.32 47.02 -8 46 C-10.72409323 45.6029984 -10.72409323 45.6029984 -13.8125 45.625 C-17.97204 45.36565218 -19.65157708 45.23228195 -23.1875 42.875 C-25.38372754 39.39132873 -25.92783467 37.11342378 -26 33 C-25.62875 31.96875 -25.2575 30.9375 -24.875 29.875 C-24.58625 28.92625 -24.2975 27.9775 -24 27 C-25.3553326 24.46326712 -25.3553326 24.46326712 -27 22 C-27.70313503 17.8690817 -27.16747575 16.29173196 -25.0625 12.625 C-23.25961789 10.6241135 -22.35131106 10.05639776 -19.6640625 9.625 C-17.41164173 9.625 -15.23600762 9.73694028 -13 10 C-12.938125 9.0925 -12.87625 8.185 -12.8125 7.25 C-12 4 -12 4 -9.875 1.625 C-6.13566894 -0.48853495 -4.24249467 -0.7314646 0 0 Z " fill="#E7F4F0" transform="translate(58,13)"/>
<path d="M0 0 C3.87219203 2.04229538 6.33985255 4.97675979 8 9 C8.65528607 12.79376145 8.86351149 16.4527415 6.94921875 19.8828125 C5.18131514 22.04184522 3.50974598 23.74512701 1 25 C-1.09375 25.203125 -1.09375 25.203125 -3.5 25.25 C-4.69109375 25.28867187 -4.69109375 25.28867187 -5.90625 25.328125 C-6.5971875 25.21984375 -7.288125 25.1115625 -8 25 C-10.45410358 21.31884463 -10.23287843 19.34706402 -10 15 C-9.67 14.01 -9.34 13.02 -9 12 C-8.34 12 -7.68 12 -7 12 C-6.34 13.65 -5.68 15.3 -5 17 C-1.70924004 16.62095792 -1.70924004 16.62095792 1 15 C1.41702122 12.0842309 1.41702122 12.0842309 1 9 C-1.29759558 6.2428853 -2.87949963 6.01752733 -6.4375 5.5 C-10.09214586 5.72622823 -10.09214586 5.72622823 -12.8125 8.0625 C-15.35431667 11.47579668 -16.11168941 13.88146907 -17 18 C-17.66 17.34 -18.32 16.68 -19 16 C-19 9.88561501 -17.64759069 6.84495556 -13.5703125 2.34765625 C-9.84549898 -0.84901207 -4.63139324 -0.71130613 0 0 Z " fill="#123D34" transform="translate(60,26)"/>
<path d="M0 0 C0.33 0 0.66 0 1 0 C0.67 2.97 0.34 5.94 0 9 C-2 7 -2 7 -2.25 4.5 C-2 2 -2 2 0 0 Z " fill="#345B52" transform="translate(43,35)"/>
</svg>
